<svg width="110" height="191" viewBox="0 0 110 191" fill="none" xmlns="http://www.w3.org/2000/svg">
<path d="M88.5008 9.2084L88.5008 29C88.5008 31.0388 87.6146 32.851 86.2292 34.1192L91.5402 34.1192C95.3493 34.1192 98.4514 31.0183 98.4514 27.1692L98.4514 7.3776C98.4514 3.53032 95.3493 0.427612 91.5402 0.427612L31.3416 0.427606C29.5509 0.427606 27.9314 1.13133 26.702 2.25655L81.5891 2.25656C85.3987 2.25656 88.5008 5.35926 88.5008 9.2084Z" fill="white"/>
<path d="M18.5237 167.578C18.3226 168.373 17.9899 169.093 17.5682 169.738C17.9605 170.018 18.3211 170.338 18.7753 170.538C19.7178 170.932 20.6603 171.129 21.6026 171.129C24.7442 171.129 27.65 169.008 28.4747 165.748L31.7029 152.648L31.4431 115.154L18.5237 167.578" fill="#FFCC99"/>
<path d="M6.50769 120.102C6.3363 120.386 6.10737 120.598 5.90943 120.85C7.12359 121.593 8.48202 122.003 9.86143 122.003C11.0097 122.003 12.1449 121.712 13.1966 121.207L16.7173 103.255L6.50769 120.102" fill="#FFCC99"/>
<path d="M73.8536 169.069C73.8536 169.266 73.8927 169.463 73.8927 169.619C73.8927 171.082 73.3897 172.423 72.606 173.566C74.2388 174.714 76.3307 175.195 78.4243 174.662C81.6051 173.877 83.8435 171.049 83.8435 167.79C83.8435 167.632 83.8041 167.437 83.8041 167.24L81.9035 141.019L69.6125 110.56L73.8536 169.069Z" fill="#FFCC99"/>
<path d="M47.229 183.443C47.1495 185.093 46.539 186.588 45.588 187.801C46.7412 188.495 48.0787 188.917 49.5225 188.917C53.6457 188.917 56.9837 185.697 57.18 181.612L58.0974 161.347L50.2924 115.783L47.229 183.443" fill="#FFCC99"/>
<path d="M75.0708 66.2251L96.9823 141.464C97.1789 142.131 97.2571 142.76 97.2571 143.427C97.2571 144.74 96.8716 146.013 96.1824 147.109C98.2017 148.604 100.95 148.975 103.399 147.763C105.794 146.585 107.208 144.151 107.208 141.598C107.208 140.93 107.13 140.302 106.933 139.634L85.0214 64.3962L85.0214 34.1192L37.8992 34.1192L37.8992 35.95L75.0708 35.95L75.0708 66.2251Z" fill="white"/>
<path d="M27.768 64.3962L3.10729 110.694C1.73288 113.247 1.92915 116.386 3.61772 118.743C4.25238 119.654 5.04987 120.325 5.90938 120.85C6.10731 120.598 6.33625 120.386 6.50763 120.102L16.7172 103.255L13.1966 121.207C14.4826 120.588 15.6375 119.634 16.4586 118.273L26.6684 101.426L14.6521 162.686C14.1185 165.454 15.3501 168.148 17.5682 169.738C17.9899 169.093 18.3226 168.373 18.5237 167.578L31.4431 115.154L31.7029 152.648L41.3941 113.325L41.8653 181.337C41.8913 184.095 43.3853 186.475 45.588 187.801C46.539 186.588 47.1496 185.094 47.229 183.443L50.2924 115.783L58.0974 161.347L60.2429 113.952L69.6673 168.967C70.0047 170.917 71.1149 172.517 72.6059 173.567C73.3896 172.423 73.8926 171.082 73.8926 169.619C73.8926 169.463 73.8535 169.266 73.8535 169.069L69.6123 110.56L81.9034 141.019L79.5631 108.731L93.8567 144.151C94.361 145.391 95.1908 146.376 96.1824 147.109C96.8716 146.014 97.2571 144.74 97.2571 143.427C97.2571 142.76 97.1789 142.131 96.9823 141.464L75.0708 66.2251L75.0708 35.95L37.8992 35.95L37.8992 52.6148L27.768 64.3962Z" fill="#FFCC99"/>
<path d="M60.2431 113.952L69.6674 168.967C70.3743 173.052 74.419 175.683 78.4243 174.662C81.6051 173.877 83.8435 171.049 83.8435 167.79C83.8435 167.632 83.8041 167.437 83.8041 167.24L79.5632 108.731" stroke="#231F20" stroke-width="4.125" stroke-miterlimit="10"/>
<path d="M41.394 113.325L41.8653 181.337C41.9044 185.539 45.3208 188.917 49.5225 188.917C53.6457 188.917 56.9837 185.697 57.1799 181.612L60.2429 113.952" stroke="#231F20" stroke-width="4.125" stroke-miterlimit="10"/>
<path d="M26.6686 101.426L14.6523 162.686C14.0242 165.944 15.7519 169.203 18.7755 170.538C19.718 170.932 20.6605 171.129 21.6029 171.129C24.7444 171.129 27.6503 169.008 28.4749 165.748L41.3943 113.325" stroke="#231F20" stroke-width="4.125" stroke-miterlimit="10"/>
<path d="M79.5631 108.731L93.8568 144.151C95.3882 147.92 99.7471 149.569 103.399 147.763C105.794 146.585 107.208 144.151 107.208 141.598C107.208 140.93 107.13 140.302 106.933 139.634L85.0214 64.3962L85.0214 34.1192L37.8992 34.1192L37.8992 52.6148L27.768 64.3961L3.10731 110.694C1.73291 113.247 1.92918 116.386 3.61775 118.743C5.14924 120.943 7.50532 122.003 9.86141 122.003C12.4139 122.003 14.9663 120.746 16.4586 118.273L26.6684 101.426L45.2423 99.3838L55.7271 79.2004" stroke="#231F20" stroke-width="4.125" stroke-miterlimit="10"/>
<rect x="100.792" y="35.375" width="77.4583" height="33" rx="7.33333" transform="rotate(-180 100.792 35.375)" fill="white" stroke="#231F20" stroke-width="3.66667"/>
<rect x="91.625" y="33.5416" width="66.4583" height="29.3333" rx="4.58333" transform="rotate(-180 91.625 33.5416)" fill="#66CC99"/>
</svg>
