<svg width="445" height="590" viewBox="0 0 445 590" fill="none" xmlns="http://www.w3.org/2000/svg">
<path d="M152.875 38.788C162.431 36.3948 172.496 40.9219 176.87 49.8258L265.277 226.241L265.347 226.333L215.18 235.014C208.179 236.171 203.539 242.669 204.532 249.651L205.751 258.063C206.137 260.841 207.119 263.443 208.397 265.671L194.669 276.689C193.467 275.128 192.014 273.621 190.282 272.322L122.517 220.027L17.1754 129.008C15.9816 128.027 14.9709 126.905 14.0521 125.713C8.11492 118.006 7.69865 107.221 13.3822 99.0414C20.8861 88.2917 35.9362 86.1999 46.0921 94.4508L195.57 211.835L138.516 67.3896C134.74 58.3146 137.874 48.1535 145.212 42.5007C147.413 40.8047 149.968 39.5689 152.875 38.788" fill="#FFCC99"/>
<path d="M119.278 322.634L102.887 301.356C96.8093 293.467 96.3228 282.591 101.701 274.205L131.831 227.213L122.518 220.027L74.1846 295.403C68.8064 303.789 69.2928 314.665 75.3703 322.554L91.7618 343.832L193.899 414.374L248.38 485.093L275.896 463.896L221.415 393.177L119.278 322.634" fill="white"/>
<path d="M327.536 311.423L316.903 248.294C314.166 231.84 298.527 220.646 281.982 223.454L265.346 226.332L215.179 235.014C208.179 236.171 203.538 242.669 204.532 249.651L205.75 258.062C206.136 260.84 207.118 263.443 208.397 265.671L194.669 276.689C193.466 275.128 192.013 273.621 190.281 272.322L131.83 227.213L101.7 274.205C96.322 282.591 96.8085 293.467 102.886 301.356L119.277 322.633L221.415 393.177L275.895 463.896L358.444 400.301L325.163 357.101L327.536 311.423" fill="#FFCC99"/>
<path d="M292.624 550.684L256.87 504.274C250.014 495.375 251.681 482.55 260.577 475.696L248.379 485.094L233.061 496.894C224.165 503.748 222.498 516.573 229.354 525.472L265.107 571.882C271.96 580.778 284.719 582.351 293.616 575.497L321.132 554.3C312.235 561.154 299.476 559.579 292.624 550.684Z" fill="white"/>
<path d="M195.569 211.835L46.0918 94.4504C35.9359 86.1995 20.8859 88.2912 13.382 99.041C7.69841 107.22 8.11468 118.006 14.0518 125.712C14.9706 126.905 15.9814 128.027 17.1752 129.008L122.517 220.026" stroke="#231F20" stroke-width="12.1625" stroke-miterlimit="10"/>
<path d="M265.276 226.242L176.87 49.8259C172.496 40.922 162.431 36.3949 152.875 38.7881C149.968 39.5689 147.413 40.8048 145.212 42.5007C137.874 48.1536 134.74 58.3147 138.516 67.3896L195.569 211.835" stroke="#231F20" stroke-width="12.1625" stroke-miterlimit="10"/>
<path d="M270.456 276.032L248.319 276.134L226.689 276.135C219.001 276.21 212.118 272.018 208.398 265.671C207.119 263.443 206.137 260.841 205.751 258.063L204.533 249.651C203.539 242.669 208.179 236.171 215.18 235.014L265.347 226.333L281.983 223.454C298.528 220.646 314.167 231.84 316.904 248.294L327.537 311.423L325.164 357.101L358.445 400.302L248.38 485.093L193.899 414.374L91.7618 343.832L75.3703 322.554C69.2928 314.665 68.8064 303.789 74.1846 295.403L122.518 220.027L190.282 272.322C192.014 273.621 193.467 275.128 194.67 276.689C201.663 285.767 201.534 298.879 193.448 307.735L171.188 332.34C163.38 340.988 150.454 342.612 140.877 336.251L113.015 318.108" stroke="#231F20" stroke-width="12.1625" stroke-miterlimit="10"/>
<path d="M248.319 276.133L244.309 352.886" stroke="#231F20" stroke-width="12.1625" stroke-miterlimit="10"/>
<rect x="207.419" y="515.797" width="228.384" height="97.2997" rx="21.6221" transform="rotate(-37.6098 207.419 515.797)" fill="white" stroke="#231F20" stroke-width="10.8111"/>
<rect x="232.128" y="503.585" width="195.951" height="86.4886" rx="13.5138" transform="rotate(-37.6098 232.128 503.585)" fill="#66CC99"/>
</svg>
