<svg width="239" height="416" viewBox="0 0 239 416" fill="none" xmlns="http://www.w3.org/2000/svg">
<path d="M193.295 19.1581L193.295 62.3398C193.295 66.788 191.361 70.7419 188.339 73.5089L199.926 73.5089C208.237 73.5089 215.005 66.7434 215.005 58.3453L215.005 15.1636C215.005 6.76955 208.237 -5.91707e-07 199.926 -1.31824e-06L68.5839 -1.28006e-05C64.677 -1.31421e-05 61.1435 1.53539 58.4612 3.99041L178.215 3.99042C186.527 3.99042 193.295 10.76 193.295 19.1581Z" fill="white"/>
<path d="M40.6185 364.692C40.1797 366.426 39.4538 367.998 38.5337 369.404C39.3898 370.016 40.1765 370.712 41.1674 371.15C43.2238 372.009 45.2802 372.438 47.3362 372.438C54.1904 372.438 60.5305 367.812 62.3296 360.698L69.373 332.117L68.8063 250.311L40.6185 364.692" fill="#FFCC99"/>
<path d="M14.4018 261.108C14.0278 261.727 13.5283 262.189 13.0965 262.74C15.7455 264.361 18.7094 265.256 21.719 265.256C24.2243 265.256 26.7012 264.62 28.9958 263.518L36.6772 224.351L14.4018 261.108" fill="#FFCC99"/>
<path d="M161.338 367.945C161.338 368.375 161.423 368.804 161.423 369.145C161.423 372.337 160.326 375.262 158.616 377.757C162.178 380.261 166.742 381.31 171.31 380.148C178.25 378.434 183.134 372.264 183.134 365.154C183.134 364.81 183.048 364.384 183.048 363.955L178.901 306.744L152.084 240.288L161.338 367.945Z" fill="#FFCC99"/>
<path d="M103.248 399.306C103.075 402.907 101.743 406.169 99.6676 408.814C102.184 410.329 105.102 411.249 108.252 411.249C117.248 411.249 124.531 404.224 124.959 395.311L126.961 351.097L109.932 251.684L103.248 399.306" fill="#FFCC99"/>
<path d="M163.994 143.558L211.801 307.716C212.23 309.171 212.4 310.544 212.4 311.999C212.4 314.863 211.559 317.642 210.055 320.032C214.461 323.293 220.457 324.104 225.801 321.458C231.027 318.89 234.112 313.579 234.112 308.008C234.112 306.55 233.94 305.18 233.512 303.722L185.704 139.568L185.704 73.5089L82.8922 73.5089L82.8922 77.5034L163.994 77.5034L163.994 143.558Z" fill="white"/>
<path d="M60.7878 139.568L6.98266 240.58C3.98397 246.15 4.41219 253.001 8.09634 258.142C9.48104 260.131 11.221 261.594 13.0963 262.74C13.5282 262.189 14.0277 261.727 14.4016 261.107L36.6771 224.351L28.9956 263.518C31.8015 262.169 34.3213 260.087 36.1128 257.117L58.3886 220.361L32.1713 354.018C31.007 360.058 33.6942 365.936 38.5337 369.404C39.4537 367.998 40.1797 366.426 40.6185 364.692L68.8063 250.311L69.373 332.117L90.5174 246.321L91.5456 394.712C91.6023 400.728 94.8619 405.921 99.6678 408.814C101.743 406.169 103.075 402.907 103.248 399.306L109.932 251.684L126.961 351.097L131.642 247.69L152.205 367.723C152.941 371.976 155.363 375.469 158.616 377.758C160.326 375.262 161.423 372.337 161.423 369.145C161.423 368.804 161.338 368.375 161.338 367.946L152.085 240.288L178.901 306.744L173.795 236.298L204.981 313.579C206.082 316.285 207.892 318.432 210.056 320.032C211.559 317.642 212.4 314.863 212.4 311.999C212.4 310.544 212.23 309.171 211.801 307.716L163.994 143.558L163.994 77.5034L82.8923 77.5034L82.8923 113.863L60.7878 139.568Z" fill="#FFCC99"/>
<path d="M131.642 247.69L152.204 367.723C153.746 376.635 162.571 382.376 171.31 380.148C178.25 378.434 183.134 372.264 183.134 365.154C183.134 364.81 183.048 364.385 183.048 363.955L173.795 236.298" stroke="#231F20" stroke-width="9" stroke-miterlimit="10"/>
<path d="M90.5172 246.321L91.5454 394.712C91.6309 403.88 99.0847 411.249 108.252 411.249C117.248 411.249 124.531 404.224 124.959 395.311L131.642 247.69" stroke="#231F20" stroke-width="9" stroke-miterlimit="10"/>
<path d="M58.3883 220.361L32.171 354.018C30.8005 361.127 34.5701 368.237 41.1671 371.15C43.2234 372.009 45.2798 372.438 47.3358 372.438C54.19 372.438 60.5301 367.812 62.3293 360.698L90.5171 246.321" stroke="#231F20" stroke-width="9" stroke-miterlimit="10"/>
<path d="M173.795 236.298L204.981 313.579C208.323 321.802 217.833 325.4 225.801 321.458C231.027 318.89 234.112 313.579 234.112 308.008C234.112 306.55 233.94 305.18 233.512 303.722L185.704 139.568L185.704 73.5089L82.8922 73.5089L82.8922 113.863L60.7876 139.568L6.98251 240.58C3.98381 246.15 4.41203 253.001 8.09619 258.142C11.4376 262.943 16.5782 265.256 21.7187 265.256C27.2879 265.256 32.8567 262.513 36.1126 257.117L58.3885 220.361L98.9134 215.904L121.789 171.868" stroke="#231F20" stroke-width="9" stroke-miterlimit="10"/>
<rect x="220.112" y="76.2488" width="169" height="72" rx="16" transform="rotate(-180 220.112 76.2488)" fill="white" stroke="#231F20" stroke-width="8"/>
<rect x="200.112" y="72.2488" width="145" height="64" rx="10" transform="rotate(-180 200.112 72.2488)" fill="#66CC99"/>
</svg>
