<svg width="250" height="324" viewBox="0 0 250 324" fill="none" xmlns="http://www.w3.org/2000/svg">
<path d="M182.499 269.513L86.6276 315.948C85.6391 316.426 84.6222 316.811 83.6054 317.171C90.9623 319.813 99.2024 319.436 106.442 315.948L202.313 269.513C211.566 264.972 217.477 255.544 217.477 245.267L217.477 74.4238L197.663 74.4238L197.663 245.267C197.663 255.544 191.752 264.972 182.499 269.513Z" fill="white"/>
<path d="M5.00039 195.145L5.00038 219.477C5.00038 227.271 9.19748 234.555 15.8819 238.582L40.728 253.32L40.7279 276.967C40.7279 284.847 44.5847 292.131 51.18 296.498L77.2251 313.979C79.2345 315.328 81.3816 316.373 83.6057 317.171C84.6225 316.811 85.6395 316.426 86.6279 315.948L182.499 269.513C191.752 264.972 197.663 255.544 197.663 245.267L197.663 74.4238L96.5898 74.4238L96.4156 74.4238L96.4156 125.744L76.6013 125.744L76.5405 125.744L16.2222 172.353C9.19742 177.839 5.00039 186.233 5.00039 195.145Z" fill="#FFCC99"/>
<path d="M217.882 16.0785L217.882 59.3453C217.882 67.6583 211.117 74.4238 202.804 74.4238L217.477 74.4238L222.618 74.4238C230.931 74.4238 237.701 67.6583 237.701 59.3453L237.701 16.0785C237.701 7.76955 230.931 0.999999 222.618 0.999999L202.804 0.999997C211.117 0.999998 217.882 7.76955 217.882 16.0785Z" fill="white"/>
<path d="M96.5895 74.4238L217.477 74.4238L217.477 245.267C217.477 255.544 211.566 264.972 202.313 269.513L106.442 315.948C97.0188 320.489 85.8781 319.804 77.2247 313.979L51.1797 296.498C44.5844 292.131 40.7276 284.847 40.7276 276.967L40.7276 253.32L40.7276 217.848C40.7276 208.425 45.9537 199.857 54.3518 195.66L110.639 167.042C118.523 163.015 127.861 163.36 135.4 167.812L170.528 188.72C177.553 192.832 181.839 200.371 181.839 208.51C181.839 214.336 179.436 219.562 175.669 223.419C171.897 227.186 166.586 229.499 160.845 229.499L145.423 229.499" stroke="#231F20" stroke-width="9" stroke-miterlimit="10"/>
<path d="M156.393 125.744L76.5401 125.744L16.2218 172.353C9.19703 177.839 5 186.233 5 195.145L5 219.477C4.99999 227.271 9.19709 234.555 15.8816 238.582L40.7276 253.32" stroke="#231F20" stroke-width="9" stroke-miterlimit="10"/>
<path d="M96.4155 74.4238L96.4155 125.744" stroke="#231F20" stroke-width="9" stroke-miterlimit="10"/>
<path d="M145.423 253.32L145.423 206.626" stroke="#231F20" stroke-width="9" stroke-miterlimit="10"/>
<rect x="245.701" y="76.9146" width="169" height="72" rx="16" transform="rotate(-180 245.701 76.9146)" fill="white" stroke="#231F20" stroke-width="8"/>
<rect x="225.701" y="72.9146" width="145" height="64" rx="10" transform="rotate(-180 225.701 72.9146)" fill="#66CC99"/>
</svg>
