<svg width="203" height="414" viewBox="0 0 203 414" fill="none" xmlns="http://www.w3.org/2000/svg">
<path d="M14.3878 380.649C7.70494 377.736 3.84943 370.537 5.30625 363.342L33.1509 220.003L33.1509 219.918L66.4797 237.484C71.1057 239.967 76.7604 238.254 79.3309 233.712L82.4154 228.231C83.4436 226.428 84.0432 224.459 84.3001 222.576L97.323 222.316C97.323 223.775 97.4944 225.314 97.923 226.858L114.03 288.116L134.678 389.043C134.935 390.157 135.021 391.271 135.021 392.385C135.021 399.584 130.395 406.095 123.369 408.323C114.116 411.236 104.349 405.665 102.121 396.242L67.5075 259.928L35.7214 370.367C33.8364 377.392 27.4108 381.933 20.5565 381.933C18.5002 381.933 16.4442 381.504 14.3878 380.649Z" fill="#FFCC99"/>
<path d="M162.266 229.43L162.266 249.305C162.266 256.674 157.64 263.27 150.7 265.757L111.816 279.697L114.03 288.116L176.403 265.757C183.343 263.27 187.969 256.674 187.969 249.305L187.969 229.43L159.953 141.953L159.953 75.894L134.25 75.894L134.25 141.953L162.266 229.43Z" fill="white"/>
<path d="M35.1219 141.953L12.8456 183.761C7.01996 194.643 11.1323 208.267 22.0989 214.092L33.151 219.918L66.4797 237.484C71.1058 239.967 76.7604 238.254 79.3309 233.712L82.4155 228.231C83.4437 226.428 84.0433 224.459 84.3001 222.576L97.3231 222.316C97.3231 223.775 97.4944 225.314 97.923 226.858L111.816 279.697L150.7 265.757C157.64 263.27 162.266 256.674 162.266 249.305L162.266 229.43L134.25 141.953L134.25 75.894L57.1405 75.894L57.1405 116.248L35.1219 141.953Z" fill="#FFCC99"/>
<path d="M163.637 17.4638L163.637 60.8156C163.637 69.1287 156.869 75.8942 148.558 75.8942L159.953 75.8942L174.261 75.8942C182.572 75.8942 189.34 69.1287 189.34 60.8156L189.34 17.4638C189.34 9.15483 182.572 2.47034 174.261 2.47034L148.558 2.47033C156.869 2.47033 163.637 9.15483 163.637 17.4638Z" fill="white"/>
<path d="M67.5075 259.928L102.121 396.242C104.349 405.665 114.116 411.236 123.369 408.323C130.395 406.095 135.021 399.584 135.021 392.385C135.021 391.271 134.935 390.157 134.678 389.043L114.03 288.116" stroke="#231F20" stroke-width="9" stroke-miterlimit="10"/>
<path d="M33.1508 220.003L5.3061 363.342C3.84929 370.537 7.7048 377.736 14.3877 380.649C16.444 381.504 18.5 381.933 20.5564 381.933C27.4106 381.933 33.8362 377.392 35.7212 370.367L67.5073 259.928" stroke="#231F20" stroke-width="9" stroke-miterlimit="10"/>
<path d="M52.5999 188.477L65.6228 198.414L78.3031 208.182C82.8436 211.609 84.9855 217.175 84.3 222.576C84.0432 224.459 83.4436 226.428 82.4154 228.231L79.3308 233.712C76.7603 238.254 71.1057 239.967 66.4797 237.484L33.1509 219.918L22.0988 214.092C11.1323 208.267 7.0199 194.643 12.8455 183.761L35.1218 141.953L57.1404 116.248L57.1404 75.894L159.953 75.894L159.953 141.953L187.969 229.43L187.969 249.305C187.969 256.674 183.343 263.27 176.403 265.757L114.03 288.116L97.923 226.858C97.4944 225.314 97.323 223.775 97.323 222.316C97.323 213.837 103.32 206.209 112.06 204.669L136.22 200.298C144.702 198.755 153.013 203.64 155.755 211.694L163.894 234.911" stroke="#231F20" stroke-width="9" stroke-miterlimit="10"/>
<path d="M65.6227 198.414L102.635 155.233" stroke="#231F20" stroke-width="9" stroke-miterlimit="10"/>
<rect x="198.174" y="76.5684" width="169" height="72" rx="16" transform="rotate(-180 198.174 76.5684)" fill="white" stroke="#231F20" stroke-width="8"/>
<rect x="178.174" y="72.5684" width="145" height="64" rx="10" transform="rotate(-180 178.174 72.5684)" fill="#66CC99"/>
</svg>
